<?xml version="1.0" encoding="UTF-8" standalone="no"?>
<!DOCTYPE svg PUBLIC "-//W3C//DTD SVG 1.1//EN"
 "http://www.w3.org/Graphics/SVG/1.1/DTD/svg11.dtd">
<!-- Generated by graphviz version 2.40.1 (20161225.0304)
 -->
<!-- Title: G Pages: 1 -->
<svg width="823pt" height="125pt"
 viewBox="0.00 0.00 823.48 124.81" xmlns="http://www.w3.org/2000/svg" xmlns:xlink="http://www.w3.org/1999/xlink">
<g id="graph0" class="graph" transform="scale(1 1) rotate(0) translate(4 120.8084)">
<title>G</title>
<polygon fill="#ffffff" stroke="transparent" points="-4,4 -4,-120.8084 819.4836,-120.8084 819.4836,4 -4,4"/>
<!-- Healthy -->
<g id="node1" class="node">
<title>Healthy</title>
<ellipse fill="none" stroke="#ff0000" cx="54" cy="-62.6" rx="54" ry="36"/>
<text text-anchor="middle" x="54" y="-56.6" font-family="Times,serif" font-size="20.00" fill="#000000">Healthy</text>
</g>
<!-- health_check -->
<g id="node5" class="node">
<title>health_check</title>
<ellipse fill="#000000" stroke="#000000" cx="179.4906" cy="-98.6" rx="3.6" ry="3.6"/>
<text text-anchor="middle" x="165.6029" y="-81.5" font-family="Times,serif" font-size="15.00" fill="#000000">check</text>
</g>
<!-- Healthy&#45;&gt;health_check -->
<g id="edge1" class="edge">
<title>Healthy&#45;&gt;health_check</title>
<path fill="none" stroke="#000000" d="M86.0777,-91.6977C97.7914,-100.5061 111.6953,-109.047 126,-113.6 139.506,-117.8988 144.3648,-117.8359 157.8906,-113.6 161.7247,-112.3993 165.4752,-110.2516 168.7465,-107.9499"/>
<polygon fill="#000000" stroke="#000000" points="171.2343,-110.4351 176.7274,-101.3755 166.7836,-105.0322 171.2343,-110.4351"/>
</g>
<!-- no_health_check -->
<g id="node6" class="node">
<title>no_health_check</title>
<ellipse fill="#000000" stroke="#000000" cx="179.4906" cy="-58.6" rx="3.6" ry="3.6"/>
<text text-anchor="middle" x="209.9534" y="-41.5" font-family="Times,serif" font-size="15.00" fill="#000000">no check</text>
</g>
<!-- Healthy&#45;&gt;no_health_check -->
<g id="edge4" class="edge">
<title>Healthy&#45;&gt;no_health_check</title>
<path fill="none" stroke="#000000" d="M107.9476,-60.8804C129.1056,-60.206 151.6252,-59.4882 165.6248,-59.042"/>
<polygon fill="#000000" stroke="#000000" points="165.9195,-62.5345 175.8029,-58.7175 165.6964,-55.538 165.9195,-62.5345"/>
</g>
<!-- Sick -->
<g id="node2" class="node">
<title>Sick</title>
<ellipse fill="none" stroke="#ff0000" cx="304.9812" cy="-61.6" rx="54" ry="36"/>
<text text-anchor="middle" x="304.9812" y="-55.6" font-family="Times,serif" font-size="20.00" fill="#000000">Sick</text>
</g>
<!-- take_med -->
<g id="node7" class="node">
<title>take_med</title>
<ellipse fill="#000000" stroke="#000000" cx="399.5812" cy="-21.6" rx="3.6" ry="3.6"/>
<text text-anchor="middle" x="368.4907" y="-4.5" font-family="Times,serif" font-size="15.00" fill="#000000">medicine</text>
</g>
<!-- Sick&#45;&gt;take_med -->
<g id="edge7" class="edge">
<title>Sick&#45;&gt;take_med</title>
<path fill="none" stroke="#000000" d="M350.6186,-42.303C363.7861,-36.7354 377.1255,-31.095 386.5485,-27.1106"/>
<polygon fill="#000000" stroke="#000000" points="387.978,-30.3063 395.8254,-23.1881 385.2518,-23.859 387.978,-30.3063"/>
</g>
<!-- no_med -->
<g id="node8" class="node">
<title>no_med</title>
<ellipse fill="#000000" stroke="#000000" cx="399.5812" cy="-61.6" rx="3.6" ry="3.6"/>
<text text-anchor="middle" x="440.0467" y="-44.5" font-family="Times,serif" font-size="15.00" fill="#000000">no medicine</text>
</g>
<!-- Sick&#45;&gt;no_med -->
<g id="edge10" class="edge">
<title>Sick&#45;&gt;no_med</title>
<path fill="none" stroke="#000000" d="M359.1879,-61.6C369.0107,-61.6 378.4273,-61.6 385.6939,-61.6"/>
<polygon fill="#000000" stroke="#000000" points="385.8309,-65.1001 395.8309,-61.6 385.8308,-58.1001 385.8309,-65.1001"/>
</g>
<!-- Dead -->
<g id="node3" class="node">
<title>Dead</title>
<ellipse fill="none" stroke="#ff0000" cx="533.2324" cy="-41.6" rx="54" ry="36"/>
<text text-anchor="middle" x="533.2324" y="-35.6" font-family="Times,serif" font-size="20.00" fill="#000000">Dead</text>
</g>
<!-- exit -->
<g id="node9" class="node">
<title>exit</title>
<ellipse fill="#000000" stroke="#000000" cx="627.8324" cy="-41.6" rx="3.6" ry="3.6"/>
<text text-anchor="middle" x="612.9847" y="-24.5" font-family="Times,serif" font-size="15.00" fill="#000000">exit</text>
</g>
<!-- Dead&#45;&gt;exit -->
<g id="edge12" class="edge">
<title>Dead&#45;&gt;exit</title>
<path fill="none" stroke="#000000" d="M587.4391,-41.6C597.2619,-41.6 606.6785,-41.6 613.9451,-41.6"/>
<polygon fill="#000000" stroke="#000000" points="614.0821,-45.1001 624.0821,-41.6 614.082,-38.1001 614.0821,-45.1001"/>
</g>
<!-- Terminal -->
<g id="node4" class="node">
<title>Terminal</title>
<ellipse fill="none" stroke="#ff0000" cx="761.4836" cy="-41.6" rx="54" ry="36"/>
<text text-anchor="middle" x="761.4836" y="-35.6" font-family="Times,serif" font-size="20.00" fill="#000000">Terminal</text>
</g>
<!-- health_check&#45;&gt;Healthy -->
<g id="edge2" class="edge">
<title>health_check&#45;&gt;Healthy</title>
<path fill="none" stroke="#000000" d="M175.8314,-97.5503C166.3169,-94.8208 139.7352,-87.1952 113.8203,-79.7609"/>
<polygon fill="#000000" stroke="#000000" points="114.5352,-76.3249 103.9578,-76.9316 112.6049,-83.0535 114.5352,-76.3249"/>
<text text-anchor="middle" x="141.9453" y="-95.8" font-family="Times,serif" font-size="14.00" fill="#000000">0.8; 1</text>
</g>
<!-- health_check&#45;&gt;Sick -->
<g id="edge3" class="edge">
<title>health_check&#45;&gt;Sick</title>
<path fill="none" stroke="#000000" d="M183.111,-97.5326C192.6253,-94.7273 219.3992,-86.8332 245.4364,-79.1564"/>
<polygon fill="#000000" stroke="#000000" points="246.7398,-82.4211 255.3418,-76.2358 244.7601,-75.7068 246.7398,-82.4211"/>
<text text-anchor="middle" x="217.0359" y="-94.8" font-family="Times,serif" font-size="14.00" fill="#000000">0.2; 0</text>
</g>
<!-- no_health_check&#45;&gt;Healthy -->
<g id="edge5" class="edge">
<title>no_health_check&#45;&gt;Healthy</title>
<path fill="none" stroke="#000000" d="M177.3961,-55.5876C173.9562,-50.9375 166.6142,-42.1933 157.8906,-38.8 144.6812,-33.6617 139.9934,-36.5471 126,-38.8 121.01,-39.6034 115.8975,-40.701 110.8114,-41.9866"/>
<polygon fill="#000000" stroke="#000000" points="109.8126,-38.6313 101.1021,-44.6626 111.6726,-45.3797 109.8126,-38.6313"/>
<text text-anchor="middle" x="141.9453" y="-43.8" font-family="Times,serif" font-size="14.00" fill="#000000">0.5; 1</text>
</g>
<!-- no_health_check&#45;&gt;Sick -->
<g id="edge6" class="edge">
<title>no_health_check&#45;&gt;Sick</title>
<path fill="none" stroke="#000000" d="M183.1227,-58.6783C191.7632,-58.8652 214.2229,-59.3551 232.9812,-59.8 235.4969,-59.8597 238.062,-59.9211 240.6533,-59.9836"/>
<polygon fill="#000000" stroke="#000000" points="240.6458,-63.4843 250.728,-60.2288 240.8161,-56.4864 240.6458,-63.4843"/>
<text text-anchor="middle" x="217.0359" y="-64.8" font-family="Times,serif" font-size="14.00" fill="#000000">0.5; 0</text>
</g>
<!-- take_med&#45;&gt;Healthy -->
<g id="edge8" class="edge">
<title>take_med&#45;&gt;Healthy</title>
<path fill="none" stroke="#000000" d="M395.7893,-20.9753C388.6237,-19.8299 372.5912,-17.4349 358.9812,-16.6 255.3849,-10.2449 226.2744,-5.8111 126,-32.6 119.9901,-34.2056 113.8186,-36.2009 107.7372,-38.3945"/>
<polygon fill="#000000" stroke="#000000" points="106.3998,-35.1584 98.2908,-41.9771 108.8821,-41.7035 106.3998,-35.1584"/>
<text text-anchor="middle" x="217.0359" y="-20.8" font-family="Times,serif" font-size="14.00" fill="#000000">0.9; 0</text>
</g>
<!-- take_med&#45;&gt;Dead -->
<g id="edge9" class="edge">
<title>take_med&#45;&gt;Dead</title>
<path fill="none" stroke="#000000" d="M403.218,-21.3737C412.7787,-20.8428 439.3873,-19.7787 461.2324,-22.8 465.3355,-23.3675 469.5403,-24.0877 473.7568,-24.9136"/>
<polygon fill="#000000" stroke="#000000" points="473.0641,-28.3445 483.5745,-27.0099 474.5259,-21.4988 473.0641,-28.3445"/>
<text text-anchor="middle" x="441.2068" y="-27.8" font-family="Times,serif" font-size="14.00" fill="#000000">0.1; 0</text>
</g>
<!-- no_med&#45;&gt;Dead -->
<g id="edge11" class="edge">
<title>no_med&#45;&gt;Dead</title>
<path fill="none" stroke="#000000" d="M403.156,-61.065C413.108,-59.5758 442.2583,-55.2137 470.4466,-50.9955"/>
<polygon fill="#000000" stroke="#000000" points="470.9721,-54.4559 480.3439,-49.5144 469.936,-47.533 470.9721,-54.4559"/>
<text text-anchor="middle" x="441.2068" y="-62.8" font-family="Times,serif" font-size="14.00" fill="#000000">1; &#45;100</text>
</g>
<!-- exit&#45;&gt;Terminal -->
<g id="edge13" class="edge">
<title>exit&#45;&gt;Terminal</title>
<path fill="none" stroke="#000000" d="M631.6882,-41.6C641.7134,-41.6 669.7314,-41.6 697.181,-41.6"/>
<polygon fill="#000000" stroke="#000000" points="697.234,-45.1001 707.2339,-41.6 697.2339,-38.1001 697.234,-45.1001"/>
<text text-anchor="middle" x="669.458" y="-45.8" font-family="Times,serif" font-size="14.00" fill="#000000">1; &#45;100</text>
</g>
</g>
</svg>
